<svg xmlns="http://www.w3.org/2000/svg" xmlns:xlink="http://www.w3.org/1999/xlink" width="100" zoomAndPan="magnify" viewBox="0 0 375 374.999991" height="auto" preserveAspectRatio="xMidYMid meet" version="1.0"><defs><g/><clipPath id="67b865e35e"><path d="M 229 132.574219 L 369.519531 132.574219 L 369.519531 242 L 229 242 Z M 229 132.574219 " clip-rule="nonzero"/></clipPath><clipPath id="b8a5ee3bd7"><path d="M 0.0234375 144.167969 L 126 144.167969 L 126 242 L 0.0234375 242 Z M 0.0234375 144.167969 " clip-rule="nonzero"/></clipPath><clipPath id="9bdc96d32c"><path d="M 238.902344 249.085938 L 270 249.085938 L 270 280.585938 L 238.902344 280.585938 Z M 238.902344 249.085938 " clip-rule="nonzero"/></clipPath><clipPath id="ed39387649"><path d="M 264 264 L 279.402344 264 L 279.402344 280.585938 L 264 280.585938 Z M 264 264 " clip-rule="nonzero"/></clipPath><clipPath id="dbcc0ec2c8"><path d="M 80 249.085938 L 110.761719 249.085938 L 110.761719 280.585938 L 80 280.585938 Z M 80 249.085938 " clip-rule="nonzero"/></clipPath><clipPath id="bf8437eeee"><path d="M 70.53125 264 L 86 264 L 86 280.585938 L 70.53125 280.585938 Z M 70.53125 264 " clip-rule="nonzero"/></clipPath></defs><g clip-path="url(#67b865e35e)"><path fill="#d0a933" d="M 240.03125 204.546875 C 252.511719 189.601562 272.535156 189.890625 290.671875 190.324219 C 295.75 190.46875 300.683594 190.617188 305.324219 190.324219 C 313.453125 189.890625 323.753906 187.570312 334.054688 183.652344 C 341.164062 180.894531 348.273438 177.410156 354.515625 173.203125 C 343.339844 191.195312 337.828125 192.066406 322.300781 196.128906 C 350.015625 195.257812 356.980469 176.6875 365.398438 160.144531 C 354.804688 170.445312 347.257812 175.671875 333.039062 181.039062 C 323.171875 184.8125 313.160156 187.132812 305.179688 187.570312 C 300.683594 187.859375 295.75 187.714844 290.671875 187.570312 C 271.808594 187.132812 251.058594 186.699219 237.855469 202.804688 Z M 241.191406 238.5 C 246.269531 239.222656 251.058594 236.613281 253.234375 232.113281 C 255.121094 228.339844 254.542969 223.988281 252.21875 220.652344 C 255.265625 224.859375 255.558594 230.519531 252.800781 235.015625 C 249.609375 240.238281 242.933594 242.414062 237.273438 240.09375 C 221.023438 233.710938 231.90625 211.363281 244.53125 204.980469 C 262.667969 195.839844 286.609375 204.109375 306.632812 203.09375 C 318.675781 202.511719 329.121094 200.773438 339.425781 194.535156 C 332.460938 203.382812 327.527344 211.363281 316.207031 215.574219 C 309.242188 218.183594 301.261719 218.328125 292.410156 215.71875 C 285.882812 213.832031 274.566406 209.332031 263.246094 215.136719 C 272.242188 208.171875 282.980469 210.058594 293.136719 213.105469 C 301.410156 215.425781 308.664062 215.28125 315.191406 212.960938 C 320.851562 210.929688 325.785156 207.15625 330.136719 202.078125 C 322.011719 204.398438 314.175781 205.5625 306.632812 205.851562 C 287.480469 206.867188 262.523438 198.886719 245.691406 207.445312 C 232.921875 213.976562 224.652344 236.03125 241.191406 238.5 Z M 363.21875 143.167969 C 359.59375 160.144531 349.871094 164.644531 340.730469 169.722656 C 365.6875 162.175781 365.832031 142.734375 369.460938 132.574219 C 346.824219 154.777344 312.289062 176.25 280.949219 182.78125 C 305.90625 184.230469 348.421875 158.546875 363.21875 143.167969 Z M 363.21875 143.167969 " fill-opacity="1" fill-rule="nonzero"/></g><g clip-path="url(#b8a5ee3bd7)"><path fill="#d0a933" d="M 115.769531 208.542969 C 104.609375 195.171875 86.699219 195.433594 70.476562 195.824219 C 65.933594 195.953125 61.519531 196.082031 57.367188 195.824219 C 50.097656 195.433594 40.882812 193.355469 31.667969 189.851562 C 25.308594 187.386719 18.949219 184.269531 13.367188 180.507812 C 23.363281 196.601562 28.292969 197.378906 42.179688 201.015625 C 17.390625 200.234375 11.160156 183.621094 3.632812 168.828125 C 13.109375 178.042969 19.859375 182.714844 32.578125 187.515625 C 41.402344 190.890625 50.359375 192.96875 57.496094 193.355469 C 61.519531 193.617188 65.933594 193.484375 70.476562 193.355469 C 87.347656 192.96875 105.90625 192.578125 117.71875 206.984375 Z M 114.734375 238.910156 C 110.191406 239.5625 105.90625 237.226562 103.960938 233.203125 C 102.273438 229.828125 102.792969 225.933594 104.867188 222.949219 C 102.144531 226.710938 101.882812 231.773438 104.351562 235.796875 C 107.207031 240.46875 113.175781 242.417969 118.238281 240.339844 C 132.773438 234.628906 123.039062 214.640625 111.746094 208.929688 C 95.523438 200.753906 74.109375 208.152344 56.199219 207.242188 C 45.425781 206.722656 36.082031 205.167969 26.867188 199.585938 C 33.097656 207.503906 37.507812 214.640625 47.632812 218.40625 C 53.863281 220.742188 61 220.871094 68.917969 218.535156 C 74.757812 216.847656 84.882812 212.824219 95.003906 218.015625 C 86.957031 211.785156 77.355469 213.472656 68.269531 216.199219 C 60.871094 218.277344 54.382812 218.144531 48.539062 216.070312 C 43.480469 214.253906 39.066406 210.878906 35.171875 206.335938 C 42.441406 208.410156 49.449219 209.449219 56.199219 209.710938 C 73.332031 210.617188 95.652344 203.480469 110.710938 211.136719 C 122.128906 216.976562 129.527344 236.707031 114.734375 238.910156 Z M 5.582031 153.640625 C 8.824219 168.828125 17.519531 172.851562 25.699219 177.390625 C 3.375 170.644531 3.246094 153.25 0 144.167969 C 20.246094 164.023438 51.136719 183.234375 79.171875 189.074219 C 56.847656 190.371094 18.820312 167.398438 5.582031 153.640625 Z M 5.582031 153.640625 " fill-opacity="1" fill-rule="nonzero"/></g><g clip-path="url(#9bdc96d32c)"><path fill="#d0a933" d="M 254.757812 257.398438 C 254.851562 258.273438 255.089844 259.101562 255.46875 259.894531 C 255.847656 260.683594 256.347656 261.390625 256.964844 262.007812 C 257.585938 262.628906 258.292969 263.128906 259.082031 263.507812 C 259.871094 263.886719 260.703125 264.125 261.574219 264.21875 C 264.328125 264.492188 267.089844 264.617188 269.859375 264.597656 C 267.089844 264.574219 264.328125 264.699219 261.574219 264.972656 C 260.703125 265.070312 259.871094 265.304688 259.082031 265.683594 C 258.292969 266.0625 257.585938 266.5625 256.964844 267.183594 C 256.347656 267.804688 255.847656 268.507812 255.46875 269.300781 C 255.089844 270.089844 254.851562 270.921875 254.757812 271.792969 C 254.480469 274.546875 254.355469 277.308594 254.378906 280.074219 C 254.402344 277.308594 254.277344 274.546875 254 271.792969 C 253.90625 270.921875 253.667969 270.089844 253.289062 269.300781 C 252.910156 268.507812 252.410156 267.804688 251.792969 267.183594 C 251.171875 266.5625 250.46875 266.0625 249.675781 265.683594 C 248.886719 265.304688 248.054688 265.070312 247.183594 264.972656 C 244.429688 264.699219 241.667969 264.574219 238.902344 264.597656 C 241.667969 264.617188 244.429688 264.492188 247.183594 264.21875 C 248.054688 264.125 248.886719 263.886719 249.675781 263.507812 C 250.46875 263.128906 251.171875 262.628906 251.792969 262.007812 C 252.410156 261.390625 252.910156 260.683594 253.289062 259.894531 C 253.667969 259.101562 253.90625 258.273438 254 257.398438 C 254.277344 254.644531 254.402344 251.886719 254.378906 249.117188 C 254.355469 251.886719 254.480469 254.644531 254.757812 257.398438 Z M 254.757812 257.398438 " fill-opacity="1" fill-rule="nonzero"/></g><g clip-path="url(#ed39387649)"><path fill="#d0a933" d="M 272.039062 268.789062 C 272.085938 269.226562 272.207031 269.648438 272.398438 270.050781 C 272.589844 270.449219 272.84375 270.804688 273.15625 271.121094 C 273.46875 271.433594 273.824219 271.6875 274.226562 271.878906 C 274.625 272.070312 275.046875 272.191406 275.488281 272.238281 C 276.882812 272.375 278.277344 272.441406 279.679688 272.429688 C 278.277344 272.417969 276.882812 272.480469 275.488281 272.621094 C 275.046875 272.667969 274.625 272.789062 274.226562 272.980469 C 273.824219 273.171875 273.46875 273.425781 273.15625 273.738281 C 272.84375 274.050781 272.589844 274.410156 272.398438 274.808594 C 272.207031 275.207031 272.085938 275.628906 272.039062 276.070312 C 271.898438 277.464844 271.835938 278.859375 271.847656 280.261719 C 271.859375 278.859375 271.792969 277.464844 271.65625 276.070312 C 271.605469 275.628906 271.488281 275.207031 271.296875 274.808594 C 271.101562 274.410156 270.851562 274.050781 270.535156 273.738281 C 270.222656 273.425781 269.867188 273.171875 269.464844 272.980469 C 269.066406 272.789062 268.644531 272.667969 268.203125 272.621094 C 266.8125 272.480469 265.414062 272.417969 264.011719 272.429688 C 265.414062 272.441406 266.8125 272.375 268.203125 272.238281 C 268.644531 272.191406 269.066406 272.070312 269.464844 271.878906 C 269.867188 271.6875 270.222656 271.433594 270.535156 271.121094 C 270.851562 270.804688 271.101562 270.449219 271.296875 270.050781 C 271.488281 269.648438 271.605469 269.226562 271.65625 268.789062 C 271.792969 267.394531 271.859375 265.996094 271.847656 264.597656 C 271.835938 265.996094 271.898438 267.394531 272.039062 268.789062 Z M 272.039062 268.789062 " fill-opacity="1" fill-rule="nonzero"/></g><path fill="#d0a933" d="M 266.148438 253.332031 C 266.179688 253.601562 266.253906 253.855469 266.371094 254.101562 C 266.488281 254.34375 266.640625 254.5625 266.832031 254.753906 C 267.023438 254.945312 267.242188 255.101562 267.484375 255.21875 C 267.730469 255.335938 267.988281 255.40625 268.257812 255.4375 C 269.105469 255.523438 269.960938 255.5625 270.816406 255.554688 C 269.960938 255.546875 269.105469 255.585938 268.257812 255.671875 C 267.988281 255.699219 267.730469 255.773438 267.484375 255.890625 C 267.242188 256.007812 267.023438 256.160156 266.832031 256.351562 C 266.640625 256.542969 266.488281 256.761719 266.371094 257.007812 C 266.253906 257.25 266.179688 257.507812 266.148438 257.777344 C 266.066406 258.628906 266.027344 259.480469 266.03125 260.335938 C 266.039062 259.480469 266 258.628906 265.917969 257.777344 C 265.886719 257.507812 265.8125 257.25 265.695312 257.007812 C 265.578125 256.761719 265.425781 256.542969 265.234375 256.351562 C 265.042969 256.160156 264.824219 256.007812 264.578125 255.890625 C 264.335938 255.773438 264.078125 255.699219 263.808594 255.671875 C 262.957031 255.585938 262.105469 255.546875 261.25 255.554688 C 262.105469 255.5625 262.957031 255.523438 263.808594 255.4375 C 264.078125 255.40625 264.335938 255.335938 264.578125 255.21875 C 264.824219 255.101562 265.042969 254.945312 265.234375 254.753906 C 265.425781 254.5625 265.578125 254.34375 265.695312 254.101562 C 265.8125 253.855469 265.886719 253.601562 265.914062 253.332031 C 266 252.480469 266.039062 251.625 266.03125 250.769531 C 266.027344 251.625 266.066406 252.480469 266.148438 253.332031 Z M 266.148438 253.332031 " fill-opacity="1" fill-rule="nonzero"/><g fill="#d0a933" fill-opacity="1"><g transform="translate(93.782377, 308.336947)"><g><path d="M 7.8125 -18.625 L 7.8125 -18.375 C 7.414062 -18.332031 7.09375 -18.226562 6.84375 -18.0625 C 6.601562 -17.894531 6.414062 -17.679688 6.28125 -17.421875 C 6.15625 -17.171875 6.070312 -16.875 6.03125 -16.53125 C 5.988281 -16.195312 5.96875 -15.832031 5.96875 -15.4375 L 5.96875 -13.453125 L 14.40625 -13.453125 L 14.40625 -14.921875 C 14.40625 -15.410156 14.382812 -15.859375 14.34375 -16.265625 C 14.3125 -16.671875 14.234375 -17.023438 14.109375 -17.328125 C 13.992188 -17.628906 13.8125 -17.867188 13.5625 -18.046875 C 13.3125 -18.222656 12.984375 -18.332031 12.578125 -18.375 L 12.578125 -18.625 L 19.359375 -18.625 L 19.359375 -18.375 C 18.960938 -18.320312 18.640625 -18.210938 18.390625 -18.046875 C 18.148438 -17.890625 17.960938 -17.675781 17.828125 -17.40625 C 17.703125 -17.144531 17.617188 -16.847656 17.578125 -16.515625 C 17.546875 -16.191406 17.53125 -15.832031 17.53125 -15.4375 L 17.53125 -3.390625 C 17.53125 -2.984375 17.550781 -2.597656 17.59375 -2.234375 C 17.644531 -1.878906 17.726562 -1.554688 17.84375 -1.265625 C 17.96875 -0.984375 18.148438 -0.757812 18.390625 -0.59375 C 18.640625 -0.425781 18.960938 -0.3125 19.359375 -0.25 L 19.359375 0 L 12.578125 0 L 12.578125 -0.25 C 12.972656 -0.289062 13.289062 -0.390625 13.53125 -0.546875 C 13.78125 -0.710938 13.96875 -0.921875 14.09375 -1.171875 C 14.226562 -1.429688 14.3125 -1.726562 14.34375 -2.0625 C 14.382812 -2.40625 14.40625 -2.785156 14.40625 -3.203125 L 14.40625 -12.09375 L 5.96875 -12.09375 L 5.96875 -3.390625 C 5.96875 -2.992188 5.988281 -2.613281 6.03125 -2.25 C 6.070312 -1.882812 6.15625 -1.554688 6.28125 -1.265625 C 6.414062 -0.984375 6.601562 -0.753906 6.84375 -0.578125 C 7.09375 -0.398438 7.414062 -0.289062 7.8125 -0.25 L 7.8125 0 L 1.015625 0 L 1.015625 -0.25 C 1.429688 -0.3125 1.757812 -0.429688 2 -0.609375 C 2.25 -0.785156 2.4375 -1.007812 2.5625 -1.28125 C 2.6875 -1.5625 2.765625 -1.863281 2.796875 -2.1875 C 2.835938 -2.519531 2.859375 -2.867188 2.859375 -3.234375 L 2.859375 -15.234375 C 2.859375 -15.609375 2.835938 -15.972656 2.796875 -16.328125 C 2.765625 -16.691406 2.679688 -17.015625 2.546875 -17.296875 C 2.410156 -17.578125 2.222656 -17.8125 1.984375 -18 C 1.753906 -18.195312 1.429688 -18.320312 1.015625 -18.375 L 1.015625 -18.625 Z M 7.8125 -18.625 "/></g></g></g><g fill="#d0a933" fill-opacity="1"><g transform="translate(117.423005, 308.336947)"><g><path d="M 10.5625 -17.53125 C 9.539062 -17.53125 8.65625 -17.316406 7.90625 -16.890625 C 7.164062 -16.460938 6.550781 -15.90625 6.0625 -15.21875 C 5.582031 -14.53125 5.226562 -13.753906 5 -12.890625 C 4.78125 -12.035156 4.671875 -11.164062 4.671875 -10.28125 C 4.671875 -9.21875 4.828125 -8.144531 5.140625 -7.0625 C 5.453125 -5.976562 5.914062 -4.992188 6.53125 -4.109375 C 7.144531 -3.222656 7.898438 -2.5 8.796875 -1.9375 C 9.691406 -1.382812 10.734375 -1.109375 11.921875 -1.109375 C 12.898438 -1.109375 13.765625 -1.304688 14.515625 -1.703125 C 15.273438 -2.097656 15.910156 -2.625 16.421875 -3.28125 C 16.929688 -3.945312 17.3125 -4.703125 17.5625 -5.546875 C 17.820312 -6.398438 17.953125 -7.285156 17.953125 -8.203125 C 17.953125 -9.453125 17.757812 -10.640625 17.375 -11.765625 C 16.988281 -12.890625 16.457031 -13.878906 15.78125 -14.734375 C 15.113281 -15.597656 14.332031 -16.28125 13.4375 -16.78125 C 12.539062 -17.28125 11.582031 -17.53125 10.5625 -17.53125 Z M 1.28125 -9.265625 C 1.28125 -10.671875 1.535156 -11.96875 2.046875 -13.15625 C 2.566406 -14.351562 3.273438 -15.382812 4.171875 -16.25 C 5.066406 -17.113281 6.117188 -17.785156 7.328125 -18.265625 C 8.535156 -18.753906 9.835938 -19 11.234375 -19 C 12.671875 -19 14.003906 -18.753906 15.234375 -18.265625 C 16.472656 -17.773438 17.546875 -17.085938 18.453125 -16.203125 C 19.359375 -15.328125 20.066406 -14.28125 20.578125 -13.0625 C 21.085938 -11.84375 21.34375 -10.507812 21.34375 -9.0625 C 21.34375 -7.6875 21.066406 -6.421875 20.515625 -5.265625 C 19.972656 -4.109375 19.234375 -3.109375 18.296875 -2.265625 C 17.367188 -1.429688 16.296875 -0.78125 15.078125 -0.3125 C 13.859375 0.144531 12.585938 0.375 11.265625 0.375 C 9.628906 0.375 8.1875 0.0859375 6.9375 -0.484375 C 5.6875 -1.066406 4.640625 -1.820312 3.796875 -2.75 C 2.960938 -3.675781 2.332031 -4.707031 1.90625 -5.84375 C 1.488281 -6.988281 1.28125 -8.128906 1.28125 -9.265625 Z M 1.28125 -9.265625 "/></g></g></g><g fill="#d0a933" fill-opacity="1"><g transform="translate(143.328481, 308.336947)"><g><path d="M 8.15625 -18.625 L 8.15625 -18.375 C 7.644531 -18.332031 7.238281 -18.253906 6.9375 -18.140625 C 6.632812 -18.035156 6.394531 -17.832031 6.21875 -17.53125 C 6.050781 -17.238281 5.9375 -16.832031 5.875 -16.3125 C 5.8125 -15.800781 5.757812 -15.117188 5.71875 -14.265625 L 5.34375 -7.109375 C 5.332031 -6.941406 5.328125 -6.734375 5.328125 -6.484375 C 5.328125 -6.234375 5.328125 -6.023438 5.328125 -5.859375 C 5.328125 -4.953125 5.4375 -4.21875 5.65625 -3.65625 C 5.882812 -3.101562 6.226562 -2.640625 6.6875 -2.265625 C 7.09375 -1.941406 7.597656 -1.6875 8.203125 -1.5 C 8.804688 -1.3125 9.410156 -1.21875 10.015625 -1.21875 C 10.523438 -1.21875 11.054688 -1.28125 11.609375 -1.40625 C 12.171875 -1.539062 12.738281 -1.769531 13.3125 -2.09375 C 13.875 -2.414062 14.332031 -2.875 14.6875 -3.46875 C 15.050781 -4.0625 15.234375 -4.890625 15.234375 -5.953125 C 15.234375 -6.148438 15.234375 -6.335938 15.234375 -6.515625 C 15.234375 -6.703125 15.222656 -6.945312 15.203125 -7.25 L 14.890625 -14.46875 C 14.847656 -15.28125 14.789062 -15.9375 14.71875 -16.4375 C 14.644531 -16.9375 14.515625 -17.328125 14.328125 -17.609375 C 14.140625 -17.890625 13.890625 -18.082031 13.578125 -18.1875 C 13.265625 -18.289062 12.851562 -18.351562 12.34375 -18.375 L 12.34375 -18.625 L 18.375 -18.625 L 18.375 -18.375 L 18.234375 -18.34375 C 17.953125 -18.269531 17.710938 -18.191406 17.515625 -18.109375 C 17.316406 -18.023438 17.15625 -17.882812 17.03125 -17.6875 C 16.90625 -17.5 16.816406 -17.238281 16.765625 -16.90625 C 16.722656 -16.582031 16.703125 -16.140625 16.703125 -15.578125 C 16.703125 -15.328125 16.703125 -15.082031 16.703125 -14.84375 C 16.703125 -14.613281 16.710938 -14.375 16.734375 -14.125 L 17.046875 -6.203125 C 17.046875 -5.128906 16.90625 -4.226562 16.625 -3.5 C 16.351562 -2.769531 15.945312 -2.148438 15.40625 -1.640625 C 14.96875 -1.242188 14.507812 -0.914062 14.03125 -0.65625 C 13.550781 -0.40625 13.0625 -0.195312 12.5625 -0.03125 C 12.070312 0.125 11.582031 0.226562 11.09375 0.28125 C 10.601562 0.34375 10.144531 0.375 9.71875 0.375 C 9.3125 0.375 8.863281 0.347656 8.375 0.296875 C 7.882812 0.242188 7.390625 0.160156 6.890625 0.046875 C 6.390625 -0.0546875 5.910156 -0.191406 5.453125 -0.359375 C 5.003906 -0.535156 4.617188 -0.742188 4.296875 -0.984375 C 3.640625 -1.484375 3.132812 -2.050781 2.78125 -2.6875 C 2.4375 -3.332031 2.265625 -4.132812 2.265625 -5.09375 C 2.265625 -5.46875 2.269531 -5.9375 2.28125 -6.5 C 2.289062 -7.070312 2.3125 -7.625 2.34375 -8.15625 L 2.65625 -14.296875 C 2.675781 -14.503906 2.6875 -14.71875 2.6875 -14.9375 C 2.6875 -15.15625 2.6875 -15.367188 2.6875 -15.578125 C 2.6875 -16.140625 2.65625 -16.585938 2.59375 -16.921875 C 2.539062 -17.265625 2.445312 -17.535156 2.3125 -17.734375 C 2.1875 -17.929688 2.007812 -18.070312 1.78125 -18.15625 C 1.550781 -18.25 1.257812 -18.320312 0.90625 -18.375 L 0.90625 -18.625 Z M 8.15625 -18.625 "/></g></g></g><g fill="#d0a933" fill-opacity="1"><g transform="translate(165.836692, 308.336947)"><g><path d="M 9.421875 -17.328125 C 8.347656 -17.328125 7.539062 -17.25 7 -17.09375 C 6.769531 -17.039062 6.585938 -16.96875 6.453125 -16.875 C 6.316406 -16.78125 6.210938 -16.640625 6.140625 -16.453125 C 6.066406 -16.265625 6.015625 -16.015625 5.984375 -15.703125 C 5.960938 -15.390625 5.953125 -14.976562 5.953125 -14.46875 L 5.953125 -10.109375 C 6.515625 -10.253906 7.191406 -10.476562 7.984375 -10.78125 C 8.773438 -11.082031 9.535156 -11.445312 10.265625 -11.875 C 11.003906 -12.300781 11.632812 -12.78125 12.15625 -13.3125 C 12.675781 -13.851562 12.9375 -14.445312 12.9375 -15.09375 C 12.9375 -15.625 12.832031 -16.039062 12.625 -16.34375 C 12.414062 -16.644531 12.140625 -16.863281 11.796875 -17 C 11.460938 -17.144531 11.085938 -17.234375 10.671875 -17.265625 C 10.253906 -17.304688 9.835938 -17.328125 9.421875 -17.328125 Z M 12.09375 -18.625 C 12.914062 -18.625 13.585938 -18.539062 14.109375 -18.375 C 14.628906 -18.21875 15.03125 -18.007812 15.3125 -17.75 C 15.59375 -17.488281 15.78125 -17.179688 15.875 -16.828125 C 15.976562 -16.484375 16.03125 -16.117188 16.03125 -15.734375 C 16.03125 -15.171875 15.910156 -14.660156 15.671875 -14.203125 C 15.429688 -13.753906 15.117188 -13.34375 14.734375 -12.96875 C 14.347656 -12.59375 13.914062 -12.25 13.4375 -11.9375 C 12.957031 -11.625 12.460938 -11.332031 11.953125 -11.0625 C 12.585938 -10.351562 13.160156 -9.613281 13.671875 -8.84375 C 14.179688 -8.082031 14.640625 -7.332031 15.046875 -6.59375 C 15.453125 -5.863281 15.800781 -5.171875 16.09375 -4.515625 C 16.382812 -3.859375 16.632812 -3.28125 16.84375 -2.78125 C 17.007812 -2.34375 17.164062 -1.976562 17.3125 -1.6875 C 17.457031 -1.394531 17.597656 -1.148438 17.734375 -0.953125 C 17.878906 -0.753906 18.039062 -0.601562 18.21875 -0.5 C 18.394531 -0.394531 18.617188 -0.3125 18.890625 -0.25 L 18.890625 0 L 12.796875 0 L 12.796875 -0.25 C 13.117188 -0.332031 13.375 -0.445312 13.5625 -0.59375 C 13.75 -0.75 13.84375 -1.003906 13.84375 -1.359375 C 13.84375 -1.921875 13.707031 -2.566406 13.4375 -3.296875 C 13.164062 -4.023438 12.8125 -4.773438 12.375 -5.546875 C 11.9375 -6.316406 11.453125 -7.078125 10.921875 -7.828125 C 10.398438 -8.585938 9.894531 -9.28125 9.40625 -9.90625 L 5.953125 -8.78125 L 5.953125 -3.375 C 5.953125 -2.957031 5.96875 -2.570312 6 -2.21875 C 6.039062 -1.875 6.117188 -1.5625 6.234375 -1.28125 C 6.359375 -1.007812 6.539062 -0.785156 6.78125 -0.609375 C 7.03125 -0.429688 7.363281 -0.3125 7.78125 -0.25 L 7.78125 0 L 0.984375 0 L 0.984375 -0.25 C 1.378906 -0.332031 1.703125 -0.457031 1.953125 -0.625 C 2.203125 -0.789062 2.390625 -1 2.515625 -1.25 C 2.648438 -1.507812 2.734375 -1.804688 2.765625 -2.140625 C 2.804688 -2.472656 2.828125 -2.835938 2.828125 -3.234375 L 2.828125 -15.234375 C 2.828125 -15.609375 2.804688 -15.972656 2.765625 -16.328125 C 2.734375 -16.691406 2.648438 -17.015625 2.515625 -17.296875 C 2.390625 -17.578125 2.207031 -17.8125 1.96875 -18 C 1.726562 -18.195312 1.398438 -18.320312 0.984375 -18.375 L 0.984375 -18.625 Z M 12.09375 -18.625 "/></g></g></g><g fill="#d0a933" fill-opacity="1"><g transform="translate(187.212476, 308.336947)"><g/></g></g><g fill="#d0a933" fill-opacity="1"><g transform="translate(199.528872, 308.336947)"><g><path d="M 14.953125 -18.6875 C 15.171875 -18.6875 15.378906 -18.726562 15.578125 -18.8125 C 15.785156 -18.894531 15.941406 -19.039062 16.046875 -19.25 L 17.359375 -13.90625 L 17.125 -13.8125 C 16.863281 -14.394531 16.519531 -14.914062 16.09375 -15.375 C 15.664062 -15.84375 15.179688 -16.238281 14.640625 -16.5625 C 14.109375 -16.882812 13.523438 -17.125 12.890625 -17.28125 C 12.265625 -17.445312 11.609375 -17.53125 10.921875 -17.53125 C 9.816406 -17.53125 8.910156 -17.375 8.203125 -17.0625 C 7.492188 -16.75 6.894531 -16.316406 6.40625 -15.765625 C 5.6875 -14.972656 5.179688 -14.09375 4.890625 -13.125 C 4.609375 -12.15625 4.46875 -11.265625 4.46875 -10.453125 C 4.46875 -9.222656 4.671875 -8.039062 5.078125 -6.90625 C 5.484375 -5.769531 6.054688 -4.773438 6.796875 -3.921875 C 7.535156 -3.066406 8.425781 -2.382812 9.46875 -1.875 C 10.519531 -1.363281 11.695312 -1.109375 13 -1.109375 C 14.414062 -1.109375 15.640625 -1.488281 16.671875 -2.25 C 17.710938 -3.007812 18.554688 -4.070312 19.203125 -5.4375 L 19.25 -5.515625 L 19.53125 -5.40625 L 17.359375 0.28125 C 17.179688 0.207031 16.992188 0.171875 16.796875 0.171875 C 16.585938 0.171875 16.359375 0.175781 16.109375 0.1875 C 15.859375 0.207031 15.601562 0.226562 15.34375 0.25 C 15.019531 0.289062 14.660156 0.320312 14.265625 0.34375 C 13.867188 0.363281 13.4375 0.375 12.96875 0.375 C 10.757812 0.375 8.898438 0.0507812 7.390625 -0.59375 C 5.878906 -1.25 4.65625 -2.09375 3.71875 -3.125 C 2.789062 -4.15625 2.117188 -5.296875 1.703125 -6.546875 C 1.285156 -7.804688 1.078125 -9.039062 1.078125 -10.25 C 1.078125 -11.382812 1.253906 -12.476562 1.609375 -13.53125 C 1.972656 -14.59375 2.550781 -15.523438 3.34375 -16.328125 C 4.132812 -17.128906 5.148438 -17.773438 6.390625 -18.265625 C 7.640625 -18.753906 9.144531 -19 10.90625 -19 C 11.769531 -19 12.535156 -18.945312 13.203125 -18.84375 C 13.878906 -18.738281 14.460938 -18.6875 14.953125 -18.6875 Z M 14.953125 -18.6875 "/></g></g></g><g fill="#d0a933" fill-opacity="1"><g transform="translate(222.603287, 308.336947)"><g><path d="M 9.09375 -16.5 L 6.515625 -9.71875 C 7.847656 -9.675781 8.992188 -9.4375 9.953125 -9 C 10.921875 -8.570312 11.679688 -8.101562 12.234375 -7.59375 Z M 12.90625 -18.625 L 12.90625 -18.375 C 12.363281 -18.21875 12.09375 -17.878906 12.09375 -17.359375 C 12.09375 -17.296875 12.101562 -17.1875 12.125 -17.03125 C 12.15625 -16.875 12.21875 -16.644531 12.3125 -16.34375 L 17.1875 -2.328125 C 17.375 -1.773438 17.570312 -1.320312 17.78125 -0.96875 C 17.988281 -0.625 18.363281 -0.382812 18.90625 -0.25 L 18.90625 0 L 12.484375 0 L 12.484375 -0.25 C 12.898438 -0.34375 13.234375 -0.546875 13.484375 -0.859375 C 13.742188 -1.171875 13.875 -1.628906 13.875 -2.234375 C 13.875 -2.785156 13.722656 -3.414062 13.421875 -4.125 C 13.117188 -4.832031 12.648438 -5.5 12.015625 -6.125 C 11.378906 -6.757812 10.578125 -7.300781 9.609375 -7.75 C 8.640625 -8.207031 7.484375 -8.445312 6.140625 -8.46875 L 4.4375 -3.796875 C 4.21875 -3.148438 4.085938 -2.675781 4.046875 -2.375 C 4.003906 -2.070312 3.984375 -1.875 3.984375 -1.78125 C 3.984375 -1.3125 4.144531 -0.945312 4.46875 -0.6875 C 4.789062 -0.4375 5.148438 -0.289062 5.546875 -0.25 L 5.546875 0 L -0.21875 0 L -0.21875 -0.25 C 0 -0.3125 0.210938 -0.378906 0.421875 -0.453125 C 0.628906 -0.523438 0.835938 -0.679688 1.046875 -0.921875 C 1.253906 -1.171875 1.476562 -1.519531 1.71875 -1.96875 C 1.96875 -2.425781 2.242188 -3.0625 2.546875 -3.875 L 7.078125 -15.828125 C 7.191406 -16.148438 7.289062 -16.4375 7.375 -16.6875 C 7.457031 -16.945312 7.5 -17.207031 7.5 -17.46875 C 7.5 -17.726562 7.40625 -17.929688 7.21875 -18.078125 C 7.03125 -18.234375 6.832031 -18.332031 6.625 -18.375 L 6.625 -18.625 Z M 12.90625 -18.625 "/></g></g></g><g fill="#d0a933" fill-opacity="1"><g transform="translate(244.545287, 308.336947)"><g><path d="M 16.109375 -13.171875 L 15.890625 -13.109375 C 15.710938 -13.597656 15.429688 -14.09375 15.046875 -14.59375 C 14.660156 -15.09375 14.160156 -15.546875 13.546875 -15.953125 C 12.929688 -16.359375 12.21875 -16.6875 11.40625 -16.9375 C 10.59375 -17.195312 9.6875 -17.328125 8.6875 -17.328125 C 8.125 -17.328125 7.664062 -17.289062 7.3125 -17.21875 C 6.96875 -17.15625 6.703125 -17.039062 6.515625 -16.875 C 6.335938 -16.707031 6.222656 -16.472656 6.171875 -16.171875 C 6.117188 -15.878906 6.09375 -15.507812 6.09375 -15.0625 L 6.09375 -13.328125 L 9.3125 -13.328125 C 10.007812 -13.328125 10.523438 -13.429688 10.859375 -13.640625 C 11.203125 -13.847656 11.394531 -14.265625 11.4375 -14.890625 L 11.4375 -14.984375 L 11.6875 -15.0625 L 12.796875 -8.71875 L 12.578125 -8.65625 L 12.515625 -8.828125 C 12.265625 -9.523438 11.988281 -10.085938 11.6875 -10.515625 C 11.382812 -10.941406 11.035156 -11.265625 10.640625 -11.484375 C 10.242188 -11.703125 9.773438 -11.84375 9.234375 -11.90625 C 8.703125 -11.96875 8.085938 -12 7.390625 -12 L 6.09375 -12 L 6.09375 -3.375 C 6.09375 -2.957031 6.109375 -2.566406 6.140625 -2.203125 C 6.179688 -1.847656 6.265625 -1.53125 6.390625 -1.25 C 6.523438 -0.96875 6.710938 -0.734375 6.953125 -0.546875 C 7.203125 -0.367188 7.535156 -0.257812 7.953125 -0.21875 L 7.953125 0 L 1.125 0 L 1.125 -0.25 C 1.539062 -0.3125 1.867188 -0.429688 2.109375 -0.609375 C 2.359375 -0.785156 2.546875 -1.007812 2.671875 -1.28125 C 2.796875 -1.5625 2.875 -1.863281 2.90625 -2.1875 C 2.945312 -2.519531 2.96875 -2.867188 2.96875 -3.234375 L 2.96875 -15.203125 C 2.96875 -15.597656 2.945312 -15.972656 2.90625 -16.328125 C 2.875 -16.691406 2.789062 -17.015625 2.65625 -17.296875 C 2.53125 -17.578125 2.34375 -17.8125 2.09375 -18 C 1.851562 -18.195312 1.53125 -18.320312 1.125 -18.375 L 1.125 -18.625 L 13.5 -18.625 C 13.769531 -18.625 14.023438 -18.644531 14.265625 -18.6875 C 14.515625 -18.726562 14.703125 -18.832031 14.828125 -19 Z M 16.109375 -13.171875 "/></g></g></g><g fill="#d0a933" fill-opacity="1"><g transform="translate(263.656215, 308.336947)"><g><path d="M 13.5 -18.625 C 13.863281 -18.625 14.101562 -18.644531 14.21875 -18.6875 C 14.34375 -18.726562 14.484375 -18.820312 14.640625 -18.96875 L 15.90625 -13.28125 L 15.6875 -13.1875 C 15.382812 -13.90625 14.976562 -14.523438 14.46875 -15.046875 C 13.957031 -15.566406 13.382812 -15.992188 12.75 -16.328125 C 12.125 -16.671875 11.445312 -16.921875 10.71875 -17.078125 C 9.988281 -17.242188 9.253906 -17.328125 8.515625 -17.328125 C 8.085938 -17.328125 7.710938 -17.300781 7.390625 -17.25 C 7.066406 -17.207031 6.796875 -17.109375 6.578125 -16.953125 C 6.359375 -16.804688 6.195312 -16.582031 6.09375 -16.28125 C 6 -15.976562 5.953125 -15.570312 5.953125 -15.0625 L 5.953125 -13.328125 L 8.359375 -13.328125 C 8.941406 -13.328125 9.421875 -13.351562 9.796875 -13.40625 C 10.171875 -13.46875 10.46875 -13.566406 10.6875 -13.703125 C 10.90625 -13.835938 11.054688 -14.007812 11.140625 -14.21875 C 11.222656 -14.4375 11.265625 -14.707031 11.265625 -15.03125 L 11.515625 -15.125 L 12.625 -8.78125 L 12.40625 -8.6875 C 12.175781 -9.425781 11.910156 -10.015625 11.609375 -10.453125 C 11.304688 -10.898438 10.941406 -11.238281 10.515625 -11.46875 C 10.085938 -11.695312 9.597656 -11.84375 9.046875 -11.90625 C 8.503906 -11.96875 7.882812 -12 7.1875 -12 L 5.953125 -12 L 5.953125 -4.078125 C 5.953125 -3.566406 5.976562 -3.132812 6.03125 -2.78125 C 6.082031 -2.4375 6.207031 -2.15625 6.40625 -1.9375 C 6.601562 -1.71875 6.894531 -1.554688 7.28125 -1.453125 C 7.675781 -1.347656 8.203125 -1.296875 8.859375 -1.296875 C 10.929688 -1.296875 12.644531 -1.769531 14 -2.71875 C 15.351562 -3.664062 16.453125 -4.976562 17.296875 -6.65625 L 17.359375 -6.765625 L 17.640625 -6.6875 L 15.234375 0.375 C 15.191406 0.332031 15.085938 0.257812 14.921875 0.15625 C 14.765625 0.0507812 14.472656 0 14.046875 0 L 0.984375 0 L 0.984375 -0.25 C 1.722656 -0.382812 2.210938 -0.675781 2.453125 -1.125 C 2.703125 -1.582031 2.828125 -2.265625 2.828125 -3.171875 L 2.828125 -15.203125 C 2.828125 -15.597656 2.804688 -15.972656 2.765625 -16.328125 C 2.734375 -16.691406 2.648438 -17.015625 2.515625 -17.296875 C 2.390625 -17.578125 2.203125 -17.8125 1.953125 -18 C 1.703125 -18.195312 1.378906 -18.320312 0.984375 -18.375 L 0.984375 -18.625 Z M 13.5 -18.625 "/></g></g></g><g clip-path="url(#dbcc0ec2c8)"><path fill="#d0a933" d="M 95.175781 257.398438 C 95.082031 258.273438 94.84375 259.101562 94.464844 259.894531 C 94.085938 260.683594 93.585938 261.390625 92.96875 262.007812 C 92.347656 262.628906 91.644531 263.128906 90.851562 263.507812 C 90.0625 263.886719 89.230469 264.125 88.359375 264.21875 C 85.605469 264.492188 82.84375 264.617188 80.078125 264.597656 C 82.84375 264.574219 85.605469 264.699219 88.359375 264.972656 C 89.230469 265.070312 90.0625 265.304688 90.851562 265.683594 C 91.644531 266.0625 92.347656 266.5625 92.96875 267.183594 C 93.585938 267.804688 94.085938 268.507812 94.464844 269.300781 C 94.84375 270.089844 95.082031 270.921875 95.175781 271.792969 C 95.453125 274.546875 95.578125 277.308594 95.554688 280.074219 C 95.53125 277.308594 95.65625 274.546875 95.933594 271.792969 C 96.027344 270.921875 96.265625 270.089844 96.644531 269.300781 C 97.023438 268.507812 97.523438 267.804688 98.140625 267.183594 C 98.761719 266.5625 99.46875 266.0625 100.257812 265.683594 C 101.046875 265.304688 101.878906 265.070312 102.75 264.972656 C 105.503906 264.699219 108.265625 264.574219 111.03125 264.597656 C 108.265625 264.617188 105.503906 264.492188 102.75 264.21875 C 101.878906 264.125 101.046875 263.886719 100.257812 263.507812 C 99.46875 263.128906 98.761719 262.628906 98.140625 262.007812 C 97.523438 261.390625 97.023438 260.683594 96.644531 259.894531 C 96.265625 259.101562 96.027344 258.273438 95.933594 257.398438 C 95.65625 254.644531 95.53125 251.886719 95.554688 249.117188 C 95.578125 251.886719 95.453125 254.644531 95.175781 257.398438 Z M 95.175781 257.398438 " fill-opacity="1" fill-rule="nonzero"/></g><g clip-path="url(#bf8437eeee)"><path fill="#d0a933" d="M 77.898438 268.789062 C 77.847656 269.226562 77.730469 269.648438 77.535156 270.050781 C 77.34375 270.449219 77.09375 270.804688 76.777344 271.121094 C 76.464844 271.433594 76.109375 271.6875 75.707031 271.878906 C 75.308594 272.070312 74.886719 272.191406 74.445312 272.238281 C 73.054688 272.375 71.65625 272.441406 70.253906 272.429688 C 71.65625 272.417969 73.054688 272.480469 74.445312 272.621094 C 74.886719 272.667969 75.308594 272.789062 75.707031 272.980469 C 76.109375 273.171875 76.464844 273.425781 76.777344 273.738281 C 77.09375 274.050781 77.34375 274.410156 77.535156 274.808594 C 77.730469 275.207031 77.847656 275.628906 77.898438 276.070312 C 78.035156 277.464844 78.097656 278.859375 78.089844 280.261719 C 78.078125 278.859375 78.140625 277.464844 78.277344 276.070312 C 78.328125 275.628906 78.445312 275.207031 78.640625 274.808594 C 78.832031 274.410156 79.082031 274.050781 79.398438 273.738281 C 79.710938 273.425781 80.066406 273.171875 80.46875 272.980469 C 80.867188 272.789062 81.289062 272.667969 81.730469 272.621094 C 83.125 272.480469 84.519531 272.417969 85.921875 272.429688 C 84.519531 272.441406 83.125 272.375 81.730469 272.238281 C 81.289062 272.191406 80.867188 272.070312 80.46875 271.878906 C 80.066406 271.6875 79.710938 271.433594 79.398438 271.121094 C 79.082031 270.804688 78.832031 270.449219 78.640625 270.050781 C 78.445312 269.648438 78.328125 269.226562 78.277344 268.789062 C 78.140625 267.394531 78.074219 265.996094 78.085938 264.597656 C 78.097656 265.996094 78.035156 267.394531 77.898438 268.789062 Z M 77.898438 268.789062 " fill-opacity="1" fill-rule="nonzero"/></g><path fill="#d0a933" d="M 83.785156 253.332031 C 83.753906 253.601562 83.683594 253.855469 83.566406 254.101562 C 83.449219 254.34375 83.292969 254.5625 83.101562 254.753906 C 82.910156 254.945312 82.691406 255.101562 82.449219 255.21875 C 82.203125 255.335938 81.949219 255.40625 81.679688 255.4375 C 80.828125 255.523438 79.972656 255.5625 79.117188 255.554688 C 79.972656 255.546875 80.828125 255.585938 81.679688 255.671875 C 81.949219 255.699219 82.203125 255.773438 82.449219 255.890625 C 82.691406 256.007812 82.910156 256.160156 83.101562 256.351562 C 83.292969 256.542969 83.449219 256.761719 83.566406 257.007812 C 83.683594 257.25 83.753906 257.507812 83.785156 257.777344 C 83.871094 258.628906 83.910156 259.480469 83.902344 260.335938 C 83.894531 259.480469 83.933594 258.628906 84.019531 257.777344 C 84.046875 257.507812 84.121094 257.25 84.238281 257.007812 C 84.355469 256.761719 84.507812 256.542969 84.699219 256.351562 C 84.890625 256.160156 85.109375 256.007812 85.355469 255.890625 C 85.597656 255.773438 85.855469 255.699219 86.125 255.671875 C 86.976562 255.585938 87.828125 255.546875 88.683594 255.554688 C 87.828125 255.5625 86.976562 255.523438 86.125 255.4375 C 85.855469 255.40625 85.597656 255.335938 85.355469 255.21875 C 85.109375 255.101562 84.894531 254.945312 84.703125 254.753906 C 84.507812 254.5625 84.355469 254.34375 84.238281 254.101562 C 84.121094 253.855469 84.046875 253.601562 84.019531 253.332031 C 83.933594 252.480469 83.894531 251.625 83.902344 250.769531 C 83.910156 251.625 83.871094 252.480469 83.785156 253.332031 Z M 83.785156 253.332031 " fill-opacity="1" fill-rule="nonzero"/><g fill="#d0a933" fill-opacity="1"><g transform="translate(49.924127, 84.989402)"><g><path d="M 26.59375 -21.609375 L 26.15625 -21.53125 C 26.101562 -21.644531 25.898438 -22 25.546875 -22.59375 C 25.203125 -23.195312 24.671875 -23.832031 23.953125 -24.5 C 23.234375 -25.164062 22.289062 -25.757812 21.125 -26.28125 C 19.957031 -26.8125 18.515625 -27.078125 16.796875 -27.078125 C 15.191406 -27.078125 13.785156 -26.8125 12.578125 -26.28125 C 11.367188 -25.757812 10.347656 -25.03125 9.515625 -24.09375 C 8.679688 -23.164062 8.050781 -22.050781 7.625 -20.75 C 7.207031 -19.457031 7 -18.039062 7 -16.5 C 7 -14.6875 7.28125 -12.910156 7.84375 -11.171875 C 8.414062 -9.441406 9.238281 -7.894531 10.3125 -6.53125 C 11.394531 -5.175781 12.71875 -4.082031 14.28125 -3.25 C 15.84375 -2.425781 17.613281 -2.015625 19.59375 -2.015625 C 20.613281 -2.015625 21.4375 -2.097656 22.0625 -2.265625 C 22.695312 -2.441406 23.179688 -2.71875 23.515625 -3.09375 C 23.847656 -3.476562 24.066406 -3.96875 24.171875 -4.5625 C 24.273438 -5.164062 24.328125 -5.875 24.328125 -6.6875 L 24.328125 -14.484375 C 24.328125 -15.066406 24.296875 -15.625 24.234375 -16.15625 C 24.179688 -16.695312 24.054688 -17.1875 23.859375 -17.625 C 23.671875 -18.0625 23.394531 -18.429688 23.03125 -18.734375 C 22.664062 -19.046875 22.175781 -19.25 21.5625 -19.34375 L 21.5625 -19.734375 L 31.375 -19.734375 L 31.375 -19.34375 C 30.375 -19.132812 29.75 -18.78125 29.5 -18.28125 C 29.257812 -17.789062 29.140625 -17.109375 29.140625 -16.234375 L 29.140625 -3.8125 C 29.140625 -2.8125 29.269531 -2.039062 29.53125 -1.5 C 29.789062 -0.96875 30.40625 -0.582031 31.375 -0.34375 L 31.375 0 L 19.6875 0 C 18.3125 0 17.054688 -0.0546875 15.921875 -0.171875 C 14.785156 -0.285156 13.734375 -0.484375 12.765625 -0.765625 C 11.804688 -1.046875 10.90625 -1.394531 10.0625 -1.8125 C 9.21875 -2.238281 8.398438 -2.757812 7.609375 -3.375 C 6.472656 -4.25 5.523438 -5.207031 4.765625 -6.25 C 4.003906 -7.300781 3.398438 -8.375 2.953125 -9.46875 C 2.503906 -10.5625 2.191406 -11.644531 2.015625 -12.71875 C 1.835938 -13.800781 1.75 -14.828125 1.75 -15.796875 C 1.75 -18.035156 2.128906 -20 2.890625 -21.6875 C 3.648438 -23.382812 4.6875 -24.800781 6 -25.9375 C 7.3125 -27.082031 8.851562 -27.9375 10.625 -28.5 C 12.40625 -29.070312 14.332031 -29.359375 16.40625 -29.359375 C 17.132812 -29.359375 17.867188 -29.3125 18.609375 -29.21875 C 19.359375 -29.132812 20.113281 -29.050781 20.875 -28.96875 C 22.007812 -28.789062 22.738281 -28.703125 23.0625 -28.703125 C 23.90625 -28.703125 24.570312 -29.035156 25.0625 -29.703125 Z M 26.59375 -21.609375 "/></g></g></g><g fill="#d0a933" fill-opacity="1"><g transform="translate(101.803932, 84.989402)"><g><path d="M 16.3125 -27.078125 C 14.738281 -27.078125 13.375 -26.75 12.21875 -26.09375 C 11.070312 -25.4375 10.125 -24.578125 9.375 -23.515625 C 8.632812 -22.453125 8.085938 -21.253906 7.734375 -19.921875 C 7.390625 -18.597656 7.21875 -17.25 7.21875 -15.875 C 7.21875 -14.25 7.457031 -12.597656 7.9375 -10.921875 C 8.414062 -9.242188 9.128906 -7.71875 10.078125 -6.34375 C 11.023438 -4.96875 12.191406 -3.847656 13.578125 -2.984375 C 14.960938 -2.128906 16.578125 -1.703125 18.421875 -1.703125 C 19.929688 -1.703125 21.269531 -2.007812 22.4375 -2.625 C 23.601562 -3.238281 24.582031 -4.054688 25.375 -5.078125 C 26.164062 -6.097656 26.753906 -7.265625 27.140625 -8.578125 C 27.535156 -9.890625 27.734375 -11.257812 27.734375 -12.6875 C 27.734375 -14.613281 27.429688 -16.441406 26.828125 -18.171875 C 26.234375 -19.910156 25.421875 -21.441406 24.390625 -22.765625 C 23.359375 -24.097656 22.148438 -25.148438 20.765625 -25.921875 C 19.378906 -26.691406 17.894531 -27.078125 16.3125 -27.078125 Z M 1.96875 -14.3125 C 1.96875 -16.5 2.367188 -18.507812 3.171875 -20.34375 C 3.972656 -22.175781 5.066406 -23.765625 6.453125 -25.109375 C 7.835938 -26.453125 9.460938 -27.492188 11.328125 -28.234375 C 13.191406 -28.984375 15.207031 -29.359375 17.375 -29.359375 C 19.582031 -29.359375 21.640625 -28.976562 23.546875 -28.21875 C 25.460938 -27.457031 27.117188 -26.398438 28.515625 -25.046875 C 29.921875 -23.691406 31.015625 -22.070312 31.796875 -20.1875 C 32.585938 -18.3125 32.984375 -16.25 32.984375 -14 C 32.984375 -11.875 32.5625 -9.921875 31.71875 -8.140625 C 30.875 -6.359375 29.726562 -4.816406 28.28125 -3.515625 C 26.84375 -2.222656 25.179688 -1.21875 23.296875 -0.5 C 21.410156 0.207031 19.445312 0.5625 17.40625 0.5625 C 14.875 0.5625 12.644531 0.117188 10.71875 -0.765625 C 8.789062 -1.648438 7.175781 -2.804688 5.875 -4.234375 C 4.582031 -5.671875 3.609375 -7.269531 2.953125 -9.03125 C 2.296875 -10.800781 1.96875 -12.5625 1.96875 -14.3125 Z M 1.96875 -14.3125 "/></g></g></g><g fill="#d0a933" fill-opacity="1"><g transform="translate(155.433339, 84.989402)"><g><path d="M 12.03125 -28.78125 L 12.03125 -28.390625 C 10.800781 -28.273438 10.019531 -27.800781 9.6875 -26.96875 C 9.351562 -26.132812 9.1875 -25.09375 9.1875 -23.84375 L 9.1875 -6.4375 C 9.1875 -5.53125 9.242188 -4.789062 9.359375 -4.21875 C 9.472656 -3.65625 9.660156 -3.203125 9.921875 -2.859375 C 10.191406 -2.523438 10.53125 -2.300781 10.9375 -2.1875 C 11.34375 -2.070312 11.835938 -2.015625 12.421875 -2.015625 C 13.828125 -2.015625 15.15625 -2.21875 16.40625 -2.625 C 17.65625 -3.03125 18.804688 -3.597656 19.859375 -4.328125 C 20.910156 -5.054688 21.859375 -5.9375 22.703125 -6.96875 C 23.546875 -8.007812 24.273438 -9.171875 24.890625 -10.453125 L 25.28125 -10.234375 L 21.53125 0.609375 C 21.40625 0.492188 21.179688 0.363281 20.859375 0.21875 C 20.546875 0.0703125 19.976562 0 19.15625 0 L 1.53125 0 L 1.53125 -0.390625 C 2.519531 -0.597656 3.238281 -1.039062 3.6875 -1.71875 C 4.144531 -2.40625 4.375 -3.46875 4.375 -4.90625 L 4.375 -23.53125 C 4.375 -24.113281 4.34375 -24.679688 4.28125 -25.234375 C 4.226562 -25.796875 4.097656 -26.296875 3.890625 -26.734375 C 3.691406 -27.171875 3.410156 -27.535156 3.046875 -27.828125 C 2.679688 -28.117188 2.175781 -28.304688 1.53125 -28.390625 L 1.53125 -28.78125 Z M 12.03125 -28.78125 "/></g></g></g><g fill="#d0a933" fill-opacity="1"><g transform="translate(198.565131, 84.989402)"><g><path d="M 12.421875 -26.78125 C 11.753906 -26.78125 11.210938 -26.734375 10.796875 -26.640625 C 10.390625 -26.554688 10.070312 -26.367188 9.84375 -26.078125 C 9.613281 -25.785156 9.453125 -25.367188 9.359375 -24.828125 C 9.273438 -24.285156 9.234375 -23.535156 9.234375 -22.578125 L 9.234375 -7.34375 C 9.234375 -6.125 9.304688 -5.15625 9.453125 -4.4375 C 9.597656 -3.726562 9.84375 -3.195312 10.1875 -2.84375 C 10.539062 -2.488281 11 -2.257812 11.5625 -2.15625 C 12.132812 -2.0625 12.84375 -2.015625 13.6875 -2.015625 C 15.46875 -2.015625 17.019531 -2.273438 18.34375 -2.796875 C 19.675781 -3.328125 20.796875 -4.070312 21.703125 -5.03125 C 22.609375 -5.988281 23.285156 -7.15625 23.734375 -8.53125 C 24.179688 -9.90625 24.40625 -11.4375 24.40625 -13.125 C 24.40625 -14.8125 24.164062 -16.472656 23.6875 -18.109375 C 23.207031 -19.742188 22.472656 -21.203125 21.484375 -22.484375 C 20.492188 -23.765625 19.242188 -24.800781 17.734375 -25.59375 C 16.234375 -26.382812 14.460938 -26.78125 12.421875 -26.78125 Z M 12.296875 -28.78125 C 15.117188 -28.78125 17.445312 -28.453125 19.28125 -27.796875 C 21.125 -27.140625 22.703125 -26.273438 24.015625 -25.203125 C 25.097656 -24.328125 26.003906 -23.367188 26.734375 -22.328125 C 27.460938 -21.296875 28.046875 -20.257812 28.484375 -19.21875 C 28.921875 -18.1875 29.222656 -17.164062 29.390625 -16.15625 C 29.566406 -15.15625 29.65625 -14.25 29.65625 -13.4375 C 29.65625 -12.789062 29.597656 -12.046875 29.484375 -11.203125 C 29.367188 -10.359375 29.144531 -9.46875 28.8125 -8.53125 C 28.476562 -7.59375 28.03125 -6.664062 27.46875 -5.75 C 26.914062 -4.832031 26.203125 -3.992188 25.328125 -3.234375 C 24.628906 -2.617188 23.914062 -2.109375 23.1875 -1.703125 C 22.457031 -1.296875 21.660156 -0.960938 20.796875 -0.703125 C 19.941406 -0.441406 18.992188 -0.257812 17.953125 -0.15625 C 16.921875 -0.0507812 15.75 0 14.4375 0 L 1.578125 0 L 1.578125 -0.390625 C 2.191406 -0.484375 2.6875 -0.660156 3.0625 -0.921875 C 3.4375 -1.179688 3.726562 -1.507812 3.9375 -1.90625 C 4.144531 -2.300781 4.273438 -2.757812 4.328125 -3.28125 C 4.390625 -3.800781 4.421875 -4.367188 4.421875 -4.984375 L 4.421875 -23.53125 C 4.421875 -24.113281 4.390625 -24.675781 4.328125 -25.21875 C 4.273438 -25.757812 4.144531 -26.25 3.9375 -26.6875 C 3.726562 -27.125 3.441406 -27.492188 3.078125 -27.796875 C 2.710938 -28.109375 2.210938 -28.304688 1.578125 -28.390625 L 1.578125 -28.78125 Z M 12.296875 -28.78125 "/></g></g></g><g fill="#d0a933" fill-opacity="1"><g transform="translate(248.695342, 84.989402)"><g><path d="M 20.875 -28.78125 C 21.425781 -28.78125 21.796875 -28.8125 21.984375 -28.875 C 22.171875 -28.9375 22.382812 -29.082031 22.625 -29.3125 L 24.59375 -20.515625 L 24.234375 -20.390625 C 23.765625 -21.492188 23.132812 -22.445312 22.34375 -23.25 C 21.5625 -24.050781 20.679688 -24.710938 19.703125 -25.234375 C 18.734375 -25.765625 17.6875 -26.15625 16.5625 -26.40625 C 15.4375 -26.65625 14.304688 -26.78125 13.171875 -26.78125 C 12.492188 -26.78125 11.90625 -26.742188 11.40625 -26.671875 C 10.914062 -26.597656 10.503906 -26.441406 10.171875 -26.203125 C 9.835938 -25.972656 9.585938 -25.625 9.421875 -25.15625 C 9.265625 -24.6875 9.1875 -24.0625 9.1875 -23.28125 L 9.1875 -20.609375 L 12.90625 -20.609375 C 13.8125 -20.609375 14.554688 -20.648438 15.140625 -20.734375 C 15.722656 -20.828125 16.179688 -20.972656 16.515625 -21.171875 C 16.847656 -21.378906 17.078125 -21.648438 17.203125 -21.984375 C 17.335938 -22.316406 17.40625 -22.734375 17.40625 -23.234375 L 17.8125 -23.359375 L 19.515625 -13.5625 L 19.15625 -13.4375 C 18.8125 -14.570312 18.40625 -15.476562 17.9375 -16.15625 C 17.46875 -16.84375 16.90625 -17.363281 16.25 -17.71875 C 15.59375 -18.070312 14.84375 -18.296875 14 -18.390625 C 13.15625 -18.492188 12.191406 -18.546875 11.109375 -18.546875 L 9.1875 -18.546875 L 9.1875 -6.296875 C 9.1875 -5.515625 9.226562 -4.851562 9.3125 -4.3125 C 9.40625 -3.769531 9.601562 -3.332031 9.90625 -3 C 10.21875 -2.664062 10.671875 -2.414062 11.265625 -2.25 C 11.859375 -2.09375 12.664062 -2.015625 13.6875 -2.015625 C 16.894531 -2.015625 19.539062 -2.742188 21.625 -4.203125 C 23.71875 -5.660156 25.421875 -7.6875 26.734375 -10.28125 L 26.8125 -10.453125 L 27.25 -10.328125 L 23.53125 0.5625 C 23.476562 0.507812 23.328125 0.398438 23.078125 0.234375 C 22.828125 0.078125 22.367188 0 21.703125 0 L 1.53125 0 L 1.53125 -0.390625 C 2.664062 -0.597656 3.421875 -1.050781 3.796875 -1.75 C 4.179688 -2.445312 4.375 -3.5 4.375 -4.90625 L 4.375 -23.5 C 4.375 -24.101562 4.34375 -24.679688 4.28125 -25.234375 C 4.226562 -25.796875 4.097656 -26.296875 3.890625 -26.734375 C 3.691406 -27.171875 3.398438 -27.535156 3.015625 -27.828125 C 2.640625 -28.117188 2.144531 -28.304688 1.53125 -28.390625 L 1.53125 -28.78125 Z M 20.875 -28.78125 "/></g></g></g><g fill="#d0a933" fill-opacity="1"><g transform="translate(294.451536, 84.989402)"><g><path d="M 13.03125 -28.78125 L 13.03125 -28.390625 C 12.425781 -28.335938 12.125 -28.164062 12.125 -27.875 C 12.125 -27.8125 12.179688 -27.648438 12.296875 -27.390625 C 12.410156 -27.128906 12.789062 -26.734375 13.4375 -26.203125 L 23.453125 -17.84375 L 23.453125 -23.53125 C 23.453125 -24.175781 23.414062 -24.78125 23.34375 -25.34375 C 23.269531 -25.914062 23.128906 -26.410156 22.921875 -26.828125 C 22.722656 -27.253906 22.429688 -27.609375 22.046875 -27.890625 C 21.671875 -28.171875 21.160156 -28.335938 20.515625 -28.390625 L 20.515625 -28.78125 L 29.140625 -28.78125 L 29.140625 -28.390625 C 28.492188 -28.304688 27.976562 -28.125 27.59375 -27.84375 C 27.21875 -27.570312 26.9375 -27.222656 26.75 -26.796875 C 26.5625 -26.367188 26.4375 -25.898438 26.375 -25.390625 C 26.320312 -24.878906 26.296875 -24.347656 26.296875 -23.796875 L 26.296875 -5.25 C 26.296875 -4.601562 26.320312 -4.007812 26.375 -3.46875 C 26.4375 -2.9375 26.566406 -2.457031 26.765625 -2.03125 C 26.972656 -1.613281 27.265625 -1.257812 27.640625 -0.96875 C 28.023438 -0.675781 28.523438 -0.484375 29.140625 -0.390625 L 29.140625 0 L 20.515625 0 L 20.515625 -0.390625 C 21.128906 -0.484375 21.632812 -0.648438 22.03125 -0.890625 C 22.425781 -1.140625 22.722656 -1.460938 22.921875 -1.859375 C 23.128906 -2.253906 23.269531 -2.710938 23.34375 -3.234375 C 23.414062 -3.765625 23.453125 -4.363281 23.453125 -5.03125 L 23.453125 -9.71875 C 23.453125 -10.15625 23.425781 -10.523438 23.375 -10.828125 C 23.332031 -11.128906 23.222656 -11.425781 23.046875 -11.71875 C 22.878906 -12.007812 22.632812 -12.316406 22.3125 -12.640625 C 21.988281 -12.960938 21.566406 -13.34375 21.046875 -13.78125 L 7.21875 -25.28125 L 7.21875 -5.25 C 7.21875 -4.632812 7.242188 -4.039062 7.296875 -3.46875 C 7.359375 -2.90625 7.488281 -2.40625 7.6875 -1.96875 C 7.894531 -1.53125 8.1875 -1.171875 8.5625 -0.890625 C 8.945312 -0.617188 9.445312 -0.453125 10.0625 -0.390625 L 10.0625 0 L 1.53125 0 L 1.53125 -0.390625 C 2.175781 -0.484375 2.6875 -0.664062 3.0625 -0.9375 C 3.4375 -1.21875 3.71875 -1.566406 3.90625 -1.984375 C 4.101562 -2.410156 4.226562 -2.878906 4.28125 -3.390625 C 4.34375 -3.898438 4.375 -4.429688 4.375 -4.984375 L 4.375 -23.53125 C 4.375 -24.113281 4.34375 -24.675781 4.28125 -25.21875 C 4.226562 -25.757812 4.097656 -26.25 3.890625 -26.6875 C 3.691406 -27.125 3.410156 -27.492188 3.046875 -27.796875 C 2.679688 -28.109375 2.175781 -28.304688 1.53125 -28.390625 L 1.53125 -28.78125 Z M 13.03125 -28.78125 "/></g></g></g><path fill="#d0a933" d="M 152.683594 173.230469 C 157.902344 172.21875 163.578125 171.644531 169.378906 171.429688 C 164.671875 181.777344 169.894531 191.09375 178.578125 190.980469 C 181.917969 190.9375 170.902344 189.109375 174.808594 177.464844 C 175.558594 175.226562 176.566406 173.207031 177.777344 171.355469 C 203.300781 171.824219 228.167969 178.316406 224.84375 183.804688 C 223.523438 185.988281 219.78125 188.839844 214.59375 191.511719 C 199.867188 199.101562 178.113281 203.300781 163.878906 194.726562 C 157.914062 191.132812 155.023438 186.5 153.683594 182.207031 C 152.816406 179.425781 152.507812 176.34375 152.683594 173.230469 Z M 216.347656 238.019531 C 224.34375 229.054688 229.34375 216.390625 228.988281 199.902344 C 228.769531 189.722656 226.546875 193 219.558594 197.496094 C 190.558594 216.148438 119.3125 208.632812 128.023438 187.9375 C 130.640625 181.722656 137.167969 177.5625 145.671875 174.957031 C 145.871094 177.789062 146.519531 180.628906 147.683594 183.4375 C 151.253906 192.078125 159.273438 197.273438 168.980469 199.71875 C 183.613281 203.40625 203.882812 201.171875 218.394531 192.417969 C 231.644531 184.425781 231.054688 178.972656 216.140625 174.125 C 206.953125 171.140625 193.457031 169.117188 179.609375 168.855469 C 183.5625 164.042969 188.964844 160.488281 194.652344 157.285156 C 203.394531 152.359375 212.738281 147.628906 215.335938 141.03125 C 219.285156 131.003906 207.457031 128.40625 206.613281 130.90625 C 206.738281 131.773438 210.699219 136.105469 202.578125 143.773438 C 198.546875 147.964844 192.148438 151.296875 182.230469 157.683594 C 176.761719 161.207031 173.023438 165.097656 170.699219 168.941406 C 164.554688 169.179688 158.503906 169.796875 152.902344 170.871094 C 153.507812 166.296875 155.105469 161.800781 157.441406 158.246094 C 168.988281 140.675781 198.515625 131.683594 203.597656 117.8125 C 209.582031 101.457031 189.664062 94.699219 182.023438 99.070312 C 180.714844 99.820312 180.183594 100.886719 182.816406 101.566406 C 190.085938 103.449219 193.398438 118.578125 181.285156 128.433594 C 170.925781 136.859375 156.890625 144.894531 149.863281 157.605469 C 147.21875 162.386719 145.691406 167.472656 145.605469 172.617188 C 136.453125 175.292969 129.21875 179.519531 125.878906 185.695312 C 111.050781 213.160156 202.226562 220.441406 225.671875 194.910156 C 227.527344 210.527344 222.726562 224.730469 214.097656 235.257812 C 213.617188 235.847656 213.121094 236.414062 212.613281 236.96875 C 209.691406 236.199219 206.757812 235.53125 204.023438 234.949219 C 204.035156 234.921875 213.785156 226.332031 215.421875 218.796875 C 216.28125 214.847656 214.34375 211.628906 212.632812 211.675781 C 212.464844 211.679688 212.347656 211.84375 212.378906 212.007812 C 212.664062 213.523438 212.730469 215.054688 212.609375 216.582031 C 212.046875 223.613281 207.488281 230.546875 202.125 235.1875 C 201.828125 235.445312 201.953125 235.925781 202.332031 236.015625 C 205.628906 236.789062 208.601562 237.582031 211.273438 238.386719 C 186.980469 262.941406 138.957031 255.085938 130.867188 216.253906 C 127.578125 200.425781 117.410156 210.40625 132.203125 231.84375 C 150.816406 258.816406 192.867188 262.101562 214.914062 239.554688 C 266.246094 257.15625 180.582031 280.300781 134.808594 263.441406 C 119.867188 257.9375 118.097656 250.910156 127.660156 245.1875 C 131.871094 242.664062 132.96875 243.28125 132.6875 241.566406 C 132.082031 237.875 112.132812 247.578125 118.1875 256.703125 C 125.375 267.53125 151.222656 272.183594 179.117188 271.378906 C 206.398438 270.585938 225.285156 264.207031 231.417969 256.574219 C 238.839844 247.34375 228.507812 241.671875 216.347656 238.019531 " fill-opacity="1" fill-rule="nonzero"/></svg>